<svg xmlns="http://www.w3.org/2000/svg" viewBox="0 0 512 512"><path fill="currentColor" d="M267.5 440.6c-17.8 2.6-35.9 4.1-54.4 4.4c-2 .3-4 .5-6.1 .5c-17.7 0-32-14.3-32-32s14.3-32 32-32c0 0 .1 0 .1 0l.7 0c18.8-.5 37-2.9 54.5-7.2c15.3-3.8 31-13.4 38.8-28.1c7.7-14.3 7.7-31.7 0-46.1c-7.8-14.6-23.5-24.2-38.8-28.1c-37.9-9.3-78.8-9.3-116.8 0c-11.9 2.9-24.4 6.2-36.9 9.5C97 284.4 85.4 287.8 74 291c-4.6 1.3-8.2 4.7-10.1 9.1s-1.9 9.3 0 13.7c8.5 19.6 13.8 40.6 15.7 62.3c1.2 13.9 2.2 27.9 2.9 42c.2 4.3 .5 8.6 .6 12.9c.6 17.6-13.2 32.3-30.8 32.9s-32.3-13.2-32.9-30.8c-.2-4.8-.4-9.5-.7-14.3c-.8-15.1-1.8-30.1-3.1-45c-2.5-28-9.5-55.3-20.3-81C-11.6 267.3 3.9 240 29.2 232.1c11.1-3.5 22.4-6.8 33.7-9.9c12.4-3.4 24.8-6.6 36.6-9.5c44.4-10.9 91.9-10.9 136.3 0c21.7 5.3 45.1 18.4 58.8 40.4c13.6 22 13.6 49.3 0 71.3c-10 16-24.2 27.1-39.6 33.3c26.3 9.3 47.9 26 59.5 49.9c13.6 28 13.6 61.3 0 89.3c-13.7 28.1-41.4 43.1-68.7 50.1z"/><path fill="currentColor" d="M406 153c17.7 0 32-14.3 32-32s-14.3-32-32-32V25c0-9.5-5.3-18.2-13.7-22.5s-18.4-3.5-26 2.3l-96 73c-5.7 4.4-9.3 11.1-9.3 18.2s3.5 13.8 9.3 18.2l96 73c7.6 5.8 17.6 6.6 26 2.3s13.7-13 13.7-22.5V153z"/></svg>
